<svg xmlns="http://www.w3.org/2000/svg" width="1200" height="760" viewBox="0 0 1200 760" role="img" aria-labelledby="title desc">
  <title id="title">Platform homepage screenshot</title>
  <desc id="desc">A sanitized screenshot-style view of the generated web services homepage with grouped app cards and health status.</desc>
  <rect width="1200" height="760" fill="#f6f7fb"/>
  <rect x="44" y="38" width="1112" height="684" rx="18" fill="#ffffff" stroke="#d7dce8"/>
  <rect x="44" y="38" width="1112" height="58" rx="18" fill="#192033"/>
  <circle cx="76" cy="67" r="7" fill="#ff6b6b"/>
  <circle cx="99" cy="67" r="7" fill="#ffd166"/>
  <circle cx="122" cy="67" r="7" fill="#2dd4bf"/>
  <text x="154" y="73" font-family="Inter, Arial, sans-serif" font-size="18" fill="#e9eefc">https://home.example.test</text>

  <text x="84" y="152" font-family="Inter, Arial, sans-serif" font-size="34" font-weight="700" fill="#172033">Web Services</text>
  <text x="84" y="184" font-family="Inter, Arial, sans-serif" font-size="16" fill="#62708a">One authenticated entry point for the generated platform.</text>
  <rect x="880" y="128" width="224" height="44" rx="8" fill="#eef7f2" stroke="#b7e4c7"/>
  <circle cx="904" cy="150" r="6" fill="#1b9e77"/>
  <text x="922" y="156" font-family="Inter, Arial, sans-serif" font-size="15" fill="#21513d">Verified stack contract</text>

  <g font-family="Inter, Arial, sans-serif">
    <text x="84" y="238" font-size="18" font-weight="700" fill="#172033">AI and Development</text>
    <rect x="84" y="262" width="240" height="110" rx="10" fill="#fbfcff" stroke="#d7dce8"/>
    <text x="108" y="302" font-size="20" font-weight="700" fill="#172033">JupyterHub</text>
    <text x="108" y="330" font-size="14" fill="#62708a">Notebook workspaces</text>
    <rect x="108" y="342" width="74" height="22" rx="11" fill="#e8f3ff"/>
    <text x="124" y="358" font-size="12" fill="#2463a6">OIDC</text>

    <rect x="348" y="262" width="240" height="110" rx="10" fill="#fbfcff" stroke="#d7dce8"/>
    <text x="372" y="302" font-size="20" font-weight="700" fill="#172033">Forgejo</text>
    <text x="372" y="330" font-size="14" fill="#62708a">Git hosting and CI</text>
    <rect x="372" y="342" width="100" height="22" rx="11" fill="#edf7ed"/>
    <text x="388" y="358" font-size="12" fill="#2a6d3f">Healthy</text>

    <rect x="612" y="262" width="240" height="110" rx="10" fill="#fbfcff" stroke="#d7dce8"/>
    <text x="636" y="302" font-size="20" font-weight="700" fill="#172033">Workspaces</text>
    <text x="636" y="330" font-size="14" fill="#62708a">Disposable dev shells</text>
    <rect x="636" y="342" width="112" height="22" rx="11" fill="#fff4df"/>
    <text x="652" y="358" font-size="12" fill="#8a5b00">Edge auth</text>

    <text x="84" y="426" font-size="18" font-weight="700" fill="#172033">Collaboration</text>
    <rect x="84" y="450" width="240" height="110" rx="10" fill="#fbfcff" stroke="#d7dce8"/>
    <text x="108" y="490" font-size="20" font-weight="700" fill="#172033">BookStack</text>
    <text x="108" y="518" font-size="14" fill="#62708a">Docs and procedures</text>

    <rect x="348" y="450" width="240" height="110" rx="10" fill="#fbfcff" stroke="#d7dce8"/>
    <text x="372" y="490" font-size="20" font-weight="700" fill="#172033">Seafile</text>
    <text x="372" y="518" font-size="14" fill="#62708a">Files and office docs</text>

    <rect x="612" y="450" width="240" height="110" rx="10" fill="#fbfcff" stroke="#d7dce8"/>
    <text x="636" y="490" font-size="20" font-weight="700" fill="#172033">Element</text>
    <text x="636" y="518" font-size="14" fill="#62708a">Matrix messaging</text>

    <text x="84" y="614" font-size="18" font-weight="700" fill="#172033">Operations</text>
    <rect x="84" y="638" width="240" height="46" rx="10" fill="#fbfcff" stroke="#d7dce8"/>
    <text x="108" y="667" font-size="16" font-weight="700" fill="#172033">Grafana</text>
    <rect x="348" y="638" width="240" height="46" rx="10" fill="#fbfcff" stroke="#d7dce8"/>
    <text x="372" y="667" font-size="16" font-weight="700" fill="#172033">Kopia</text>
    <rect x="612" y="638" width="240" height="46" rx="10" fill="#fbfcff" stroke="#d7dce8"/>
    <text x="636" y="667" font-size="16" font-weight="700" fill="#172033">Prometheus</text>
  </g>

  <rect x="904" y="254" width="200" height="258" rx="12" fill="#172033"/>
  <text x="928" y="292" font-family="Inter, Arial, sans-serif" font-size="17" font-weight="700" fill="#ffffff">Trust boundary</text>
  <text x="928" y="328" font-family="Inter, Arial, sans-serif" font-size="14" fill="#b8c2d8">Caddy edge</text>
  <text x="928" y="362" font-family="Inter, Arial, sans-serif" font-size="14" fill="#b8c2d8">Keycloak realm</text>
  <text x="928" y="396" font-family="Inter, Arial, sans-serif" font-size="14" fill="#b8c2d8">Group-based RBAC</text>
  <text x="928" y="430" font-family="Inter, Arial, sans-serif" font-size="14" fill="#b8c2d8">SOPS at deploy</text>
  <text x="928" y="464" font-family="Inter, Arial, sans-serif" font-size="14" fill="#b8c2d8">Verified routes</text>
</svg>
