<svg xmlns="http://www.w3.org/2000/svg" width="1200" height="620" viewBox="0 0 1200 620" role="img" aria-labelledby="title desc">
  <title id="title">Verification suite screenshot</title>
  <desc id="desc">A sanitized terminal-style screenshot of the stack verification suite passing.</desc>
  <rect width="1200" height="620" fill="#f6f7fb"/>
  <rect x="72" y="54" width="1056" height="512" rx="16" fill="#121826"/>
  <rect x="72" y="54" width="1056" height="46" rx="16" fill="#1f2937"/>
  <circle cx="102" cy="77" r="7" fill="#ff6b6b"/>
  <circle cx="126" cy="77" r="7" fill="#ffd166"/>
  <circle cx="150" cy="77" r="7" fill="#2dd4bf"/>
  <text x="180" y="83" font-family="SFMono-Regular, Consolas, monospace" font-size="15" fill="#cbd5e1">~/webservices ./verify.sh</text>

  <g font-family="SFMono-Regular, Consolas, monospace" font-size="18">
    <text x="104" y="146" fill="#93c5fd">[webservices-verify]</text>
    <text x="332" y="146" fill="#e5e7eb">phase: readiness</text>
    <text x="104" y="184" fill="#34d399">[webservices-ready]</text>
    <text x="322" y="184" fill="#e5e7eb">all services ready</text>
    <text x="104" y="238" fill="#fbbf24">Running suite</text>
    <text x="262" y="238" fill="#e5e7eb">'stack-contract'</text>

    <text x="104" y="292" fill="#c4b5fd">Foundation Tests</text>
    <text x="408" y="292" fill="#34d399">8 passed</text>
    <text x="104" y="330" fill="#c4b5fd">Authentication Tests</text>
    <text x="408" y="330" fill="#34d399">11 passed</text>
    <text x="104" y="368" fill="#c4b5fd">Service Contract Tests</text>
    <text x="408" y="368" fill="#34d399">94 passed</text>
    <text x="104" y="406" fill="#c4b5fd">Extended Runtime Tests</text>
    <text x="408" y="406" fill="#34d399">82 passed</text>

    <rect x="104" y="454" width="440" height="58" rx="8" fill="#0f3b2e"/>
    <text x="128" y="491" fill="#a7f3d0">TEST RESULTS: 195 passed, 0 failed</text>
    <text x="104" y="544" fill="#93c5fd">[webservices-verify]</text>
    <text x="332" y="544" fill="#e5e7eb">verification passed</text>
  </g>
</svg>
